<?xml version="1.0" encoding="utf-8" ?>
<svg xmlns="http://www.w3.org/2000/svg" version="1.2" width="800" height="360" viewBox="0 0 800 360" viewport-fill="#fff">
  <defs>
    <marker id="arrow" markerWidth="10" markerHeight="10" refX="0" refY="3" orient="auto" markerUnits="strokeWidth">
      <path d="M0,0 L0,6 L9,3 z" fill="#666" />
    </marker>
  </defs>

  <g transform="translate(360, 350)" style="font: 16px sans-serif; stroke: none; text-anchor: left; alignment-baseline: center;">
    <g transform="translate(-200, 0)" fill="#FFCC33">
      <circle cx="0" cy="0" r="5" stroke="#666" stroke-width="1" />
      <text x="10" y="6">Сервер A</text>>
    </g>
    <g transform="translate(-100, 0)" fill="#FF3300">
      <circle cx="0" cy="0" r="5" stroke="#666" stroke-width="1" />
      <text x="10" y="6">Сервер B</text>>
    </g>
    <g transform="translate(0, 0)" fill="#330099">
      <circle cx="0" cy="0" r="5" stroke="#666" stroke-width="1" />
      <text x="10" y="6">Сервер C</text>>
    </g>
    <g transform="translate(100, 0)" fill="#00CC66">
      <circle cx="0" cy="0" r="5" stroke="#666" stroke-width="1" />
      <text x="10" y="6">Сервер D</text>>
    </g>
    <g transform="translate(200, 0)" fill="#666">
      <circle cx="0" cy="0" r="5" fill="#FFFFFF" stroke="#666" stroke-width="1" />
      <text x="10" y="6">Сервер E</text>>
    </g>
  </g>

  <g transform="translate(120, 220)" stroke="#666" stroke-width="1">
    <text x="0" y="0" dy="8" style="font: 24px sans-serif; font-weight: bold; fill: #000; stroke: none; text-anchor: middle; alignment-baseline: center;">3 сервера</text>>

    <!-- {{{ Circle 3 -->
    <circle cx="0" cy="0" r="100" fill="#fff" opacity="0.7" />

    <circle cx="100" cy="0" r="5" fill="#FFCC33" color="#FFCC33" />
    <circle cx="99" cy="10" r="5" fill="#FFCC33" color="#FFCC33" />
    <circle cx="98" cy="21" r="5" fill="#FFCC33" color="#FFCC33" />
    <circle cx="95" cy="31" r="5" fill="#FFCC33" color="#FFCC33" />
    <circle cx="91" cy="41" r="5" fill="#FFCC33" color="#FFCC33" />
    <circle cx="87" cy="50" r="5" fill="#FFCC33" color="#FFCC33" />
    <circle cx="81" cy="59" r="5" fill="#FFCC33" color="#FFCC33" />
    <circle cx="74" cy="67" r="5" fill="#FFCC33" color="#FFCC33" />
    <circle cx="67" cy="74" r="5" fill="#FFCC33" color="#FFCC33" />
    <circle cx="59" cy="81" r="5" fill="#FFCC33" color="#FFCC33" />
    <circle cx="50" cy="87" r="5" fill="#FFCC33" color="#FFCC33" />
    <circle cx="41" cy="91" r="5" fill="#FFCC33" color="#FFCC33" />
    <circle cx="31" cy="95" r="5" fill="#FFCC33" color="#FFCC33" />
    <circle cx="21" cy="98" r="5" fill="#FFCC33" color="#FFCC33" />
    <circle cx="10" cy="99" r="5" fill="#FFCC33" color="#FFCC33" />
    <circle cx="0" cy="100" r="5" fill="#330099" color="#330099" />
    <circle cx="-10" cy="99" r="5" fill="#00CC66" color="#00CC66" />
    <circle cx="-21" cy="98" r="5" fill="#FFCC33" color="#FFCC33" />
    <circle cx="-31" cy="95" r="5" fill="#00CC66" color="#00CC66" />
    <circle cx="-41" cy="91" r="5" fill="#330099" color="#330099" />
    <circle cx="-50" cy="87" r="5" fill="#330099" color="#330099" />
    <circle cx="-59" cy="81" r="5" fill="#00CC66" color="#00CC66" />
    <circle cx="-67" cy="74" r="5" fill="#00CC66" color="#00CC66" />
    <circle cx="-74" cy="67" r="5" fill="#00CC66" color="#00CC66" />
    <circle cx="-81" cy="59" r="5" fill="#FFCC33" color="#FFCC33" />
    <circle cx="-87" cy="50" r="5" fill="#00CC66" color="#00CC66" />
    <circle cx="-91" cy="41" r="5" fill="#FFCC33" color="#FFCC33" />
    <circle cx="-95" cy="31" r="5" fill="#330099" color="#330099" />
    <circle cx="-98" cy="21" r="5" fill="#00CC66" color="#00CC66" />
    <circle cx="-99" cy="10" r="5" fill="#330099" color="#330099" />
    <circle cx="-100" cy="0" r="5" fill="#330099" color="#330099" />
    <circle cx="-99" cy="-10" r="5" fill="#330099" color="#330099" />
    <circle cx="-98" cy="-21" r="5" fill="#330099" color="#330099" />
    <circle cx="-95" cy="-31" r="5" fill="#330099" color="#330099" />
    <circle cx="-91" cy="-41" r="5" fill="#330099" color="#330099" />
    <circle cx="-87" cy="-50" r="5" fill="#330099" color="#330099" />
    <circle cx="-81" cy="-59" r="5" fill="#330099" color="#330099" />
    <circle cx="-74" cy="-67" r="5" fill="#330099" color="#330099" />
    <circle cx="-67" cy="-74" r="5" fill="#330099" color="#330099" />
    <circle cx="-59" cy="-81" r="5" fill="#330099" color="#330099" />
    <circle cx="-50" cy="-87" r="5" fill="#330099" color="#330099" />
    <circle cx="-41" cy="-91" r="5" fill="#330099" color="#330099" />
    <circle cx="-31" cy="-95" r="5" fill="#330099" color="#330099" />
    <circle cx="-21" cy="-98" r="5" fill="#330099" color="#330099" />
    <circle cx="-10" cy="-99" r="5" fill="#330099" color="#330099" />
    <circle cx="-0" cy="-100" r="5" fill="#00CC66" color="#00CC66" />
    <circle cx="10" cy="-99" r="5" fill="#00CC66" color="#00CC66" />
    <circle cx="21" cy="-98" r="5" fill="#00CC66" color="#00CC66" />
    <circle cx="31" cy="-95" r="5" fill="#00CC66" color="#00CC66" />
    <circle cx="41" cy="-91" r="5" fill="#00CC66" color="#00CC66" />
    <circle cx="50" cy="-87" r="5" fill="#00CC66" color="#00CC66" />
    <circle cx="59" cy="-81" r="5" fill="#00CC66" color="#00CC66" />
    <circle cx="67" cy="-74" r="5" fill="#00CC66" color="#00CC66" />
    <circle cx="74" cy="-67" r="5" fill="#00CC66" color="#00CC66" />
    <circle cx="81" cy="-59" r="5" fill="#00CC66" color="#00CC66" />
    <circle cx="87" cy="-50" r="5" fill="#00CC66" color="#00CC66" />
    <circle cx="91" cy="-41" r="5" fill="#00CC66" color="#00CC66" />
    <circle cx="95" cy="-31" r="5" fill="#00CC66" color="#00CC66" />
    <circle cx="98" cy="-21" r="5" fill="#00CC66" color="#00CC66" />
    <circle cx="99" cy="-10" r="5" fill="#00CC66" color="#00CC66" />
    <!-- Circle 3 }}} -->
  </g>

  <g transform="translate(400, 10)">
    <text x="0" y="20" style="font: 24px sans-serif; font-weight: bold; fill: #666; stroke: none; text-anchor: middle;">Начало</text>>
    <line x1="0" y1="30" x2="0" y2="60" stroke="#666" stroke-width="4" marker-end="url(#arrow)" />
  </g>

  <g transform="translate(262, 220)">
    <line x1="30" y1="0" x2="0" y2="0" stroke="#666" stroke-width="4" marker-end="url(#arrow)" />
  </g>

  <g transform="translate(508, 220)">
    <line x1="0" y1="0" x2="30" y2="0" stroke="#666" stroke-width="4" marker-end="url(#arrow)" />
  </g>

  <g transform="translate(400, 220)" stroke="#666" stroke-width="1">
    <text x="0" y="0" dy="8" style="font: 24px sans-serif; font-weight: bold; fill: #000; stroke: none; text-anchor: middle; alignment-baseline: center;">4 сервера</text>>

    <!-- {{{ Circle 4 -->
    <circle cx="0" cy="0" r="100" fill="#fff" opacity="0.7" />

    <circle cx="100" cy="0" r="5" fill="#FFCC33" color="#FFCC33" />
    <circle cx="99" cy="10" r="5" fill="#FFCC33" color="#FFCC33" />
    <circle cx="98" cy="21" r="5" fill="#FFCC33" color="#FFCC33" />
    <circle cx="95" cy="31" r="5" fill="#FFCC33" color="#FFCC33" />
    <circle cx="91" cy="41" r="5" fill="#FFCC33" color="#FFCC33" />
    <circle cx="87" cy="50" r="5" fill="#FFCC33" color="#FFCC33" />
    <circle cx="81" cy="59" r="5" fill="#FFCC33" color="#FFCC33" />
    <circle cx="74" cy="67" r="5" fill="#FFCC33" color="#FFCC33" />
    <circle cx="67" cy="74" r="5" fill="#FFCC33" color="#FFCC33" />
    <circle cx="59" cy="81" r="5" fill="#FFCC33" color="#FFCC33" />
    <circle cx="50" cy="87" r="5" fill="#FFCC33" color="#FFCC33" />
    <circle cx="41" cy="91" r="5" fill="#FFCC33" color="#FFCC33" />
    <circle cx="31" cy="95" r="5" fill="#FFCC33" color="#FFCC33" />
    <circle cx="21" cy="98" r="5" fill="#FFCC33" color="#FFCC33" />
    <circle cx="10" cy="99" r="5" fill="#FFCC33" color="#FFCC33" />
    <circle cx="0" cy="100" r="5" fill="#FF3300" color="#FF3300" />
    <circle cx="-10" cy="99" r="5" fill="#FF3300" color="#FF3300" />
    <circle cx="-21" cy="98" r="5" fill="#FF3300" color="#FF3300" />
    <circle cx="-31" cy="95" r="5" fill="#FF3300" color="#FF3300" />
    <circle cx="-41" cy="91" r="5" fill="#FF3300" color="#FF3300" />
    <circle cx="-50" cy="87" r="5" fill="#FF3300" color="#FF3300" />
    <circle cx="-59" cy="81" r="5" fill="#FF3300" color="#FF3300" />
    <circle cx="-67" cy="74" r="5" fill="#FF3300" color="#FF3300" />
    <circle cx="-74" cy="67" r="5" fill="#FF3300" color="#FF3300" />
    <circle cx="-81" cy="59" r="5" fill="#FF3300" color="#FF3300" />
    <circle cx="-87" cy="50" r="5" fill="#FF3300" color="#FF3300" />
    <circle cx="-91" cy="41" r="5" fill="#FF3300" color="#FF3300" />
    <circle cx="-95" cy="31" r="5" fill="#FF3300" color="#FF3300" />
    <circle cx="-98" cy="21" r="5" fill="#FF3300" color="#FF3300" />
    <circle cx="-99" cy="10" r="5" fill="#FF3300" color="#FF3300" />
    <circle cx="-100" cy="0" r="5" fill="#330099" color="#330099" />
    <circle cx="-99" cy="-10" r="5" fill="#330099" color="#330099" />
    <circle cx="-98" cy="-21" r="5" fill="#330099" color="#330099" />
    <circle cx="-95" cy="-31" r="5" fill="#330099" color="#330099" />
    <circle cx="-91" cy="-41" r="5" fill="#330099" color="#330099" />
    <circle cx="-87" cy="-50" r="5" fill="#330099" color="#330099" />
    <circle cx="-81" cy="-59" r="5" fill="#330099" color="#330099" />
    <circle cx="-74" cy="-67" r="5" fill="#330099" color="#330099" />
    <circle cx="-67" cy="-74" r="5" fill="#330099" color="#330099" />
    <circle cx="-59" cy="-81" r="5" fill="#330099" color="#330099" />
    <circle cx="-50" cy="-87" r="5" fill="#330099" color="#330099" />
    <circle cx="-41" cy="-91" r="5" fill="#330099" color="#330099" />
    <circle cx="-31" cy="-95" r="5" fill="#330099" color="#330099" />
    <circle cx="-21" cy="-98" r="5" fill="#330099" color="#330099" />
    <circle cx="-10" cy="-99" r="5" fill="#330099" color="#330099" />
    <circle cx="-0" cy="-100" r="5" fill="#00CC66" color="#00CC66" />
    <circle cx="10" cy="-99" r="5" fill="#00CC66" color="#00CC66" />
    <circle cx="21" cy="-98" r="5" fill="#00CC66" color="#00CC66" />
    <circle cx="31" cy="-95" r="5" fill="#00CC66" color="#00CC66" />
    <circle cx="41" cy="-91" r="5" fill="#00CC66" color="#00CC66" />
    <circle cx="50" cy="-87" r="5" fill="#00CC66" color="#00CC66" />
    <circle cx="59" cy="-81" r="5" fill="#00CC66" color="#00CC66" />
    <circle cx="67" cy="-74" r="5" fill="#00CC66" color="#00CC66" />
    <circle cx="74" cy="-67" r="5" fill="#00CC66" color="#00CC66" />
    <circle cx="81" cy="-59" r="5" fill="#00CC66" color="#00CC66" />
    <circle cx="87" cy="-50" r="5" fill="#00CC66" color="#00CC66" />
    <circle cx="91" cy="-41" r="5" fill="#00CC66" color="#00CC66" />
    <circle cx="95" cy="-31" r="5" fill="#00CC66" color="#00CC66" />
    <circle cx="98" cy="-21" r="5" fill="#00CC66" color="#00CC66" />
    <circle cx="99" cy="-10" r="5" fill="#00CC66" color="#00CC66" />
    <!-- Circle 4 }}} -->
  </g>

  <g transform="translate(680, 220)" stroke="#666" stroke-width="1">
    <text x="0" y="0" dy="8" style="font: 24px sans-serif; font-weight: bold; fill: #000; stroke: none; text-anchor: middle; alignment-baseline: center;">5 серверов</text>>

    <!-- {{{ Circle 5 -->
    <circle cx="0" cy="0" r="100" fill="#fff" opacity="0.7" />

    <circle cx="100" cy="0" r="5" fill="#FFFFFF" color="#FFFFFF" />
    <circle cx="99" cy="10" r="5" fill="#FFCC33" color="#FFCC33" />
    <circle cx="98" cy="21" r="5" fill="#FFFFFF" color="#FFFFFF" />
    <circle cx="95" cy="31" r="5" fill="#FFFFFF" color="#FFFFFF" />
    <circle cx="91" cy="41" r="5" fill="#FFFFFF" color="#FFFFFF" />
    <circle cx="87" cy="50" r="5" fill="#FFCC33" color="#FFCC33" />
    <circle cx="81" cy="59" r="5" fill="#FFCC33" color="#FFCC33" />
    <circle cx="74" cy="67" r="5" fill="#FFCC33" color="#FFCC33" />
    <circle cx="67" cy="74" r="5" fill="#FFCC33" color="#FFCC33" />
    <circle cx="59" cy="81" r="5" fill="#FFCC33" color="#FFCC33" />
    <circle cx="50" cy="87" r="5" fill="#FFCC33" color="#FFCC33" />
    <circle cx="41" cy="91" r="5" fill="#FFCC33" color="#FFCC33" />
    <circle cx="31" cy="95" r="5" fill="#FFCC33" color="#FFCC33" />
    <circle cx="21" cy="98" r="5" fill="#FFCC33" color="#FFCC33" />
    <circle cx="10" cy="99" r="5" fill="#FFCC33" color="#FFCC33" />
    <circle cx="0" cy="100" r="5" fill="#FF3300" color="#FF3300" />
    <circle cx="-10" cy="99" r="5" fill="#FFFFFF" color="#FFFFFF" />
    <circle cx="-21" cy="98" r="5" fill="#FF3300" color="#FF3300" />
    <circle cx="-31" cy="95" r="5" fill="#FF3300" color="#FF3300" />
    <circle cx="-41" cy="91" r="5" fill="#FF3300" color="#FF3300" />
    <circle cx="-50" cy="87" r="5" fill="#FF3300" color="#FF3300" />
    <circle cx="-59" cy="81" r="5" fill="#FFFFFF" color="#FFFFFF" />
    <circle cx="-67" cy="74" r="5" fill="#FF3300" color="#FF3300" />
    <circle cx="-74" cy="67" r="5" fill="#FF3300" color="#FF3300" />
    <circle cx="-81" cy="59" r="5" fill="#FF3300" color="#FF3300" />
    <circle cx="-87" cy="50" r="5" fill="#FF3300" color="#FF3300" />
    <circle cx="-91" cy="41" r="5" fill="#FFFFFF" color="#FFFFFF" />
    <circle cx="-95" cy="31" r="5" fill="#FF3300" color="#FF3300" />
    <circle cx="-98" cy="21" r="5" fill="#FF3300" color="#FF3300" />
    <circle cx="-99" cy="10" r="5" fill="#FF3300" color="#FF3300" />
    <circle cx="-100" cy="0" r="5" fill="#FFFFFF" color="#FFFFFF" />
    <circle cx="-99" cy="-10" r="5" fill="#330099" color="#330099" />
    <circle cx="-98" cy="-21" r="5" fill="#330099" color="#330099" />
    <circle cx="-95" cy="-31" r="5" fill="#FFFFFF" color="#FFFFFF" />
    <circle cx="-91" cy="-41" r="5" fill="#FFFFFF" color="#FFFFFF" />
    <circle cx="-87" cy="-50" r="5" fill="#330099" color="#330099" />
    <circle cx="-81" cy="-59" r="5" fill="#FFFFFF" color="#FFFFFF" />
    <circle cx="-74" cy="-67" r="5" fill="#330099" color="#330099" />
    <circle cx="-67" cy="-74" r="5" fill="#330099" color="#330099" />
    <circle cx="-59" cy="-81" r="5" fill="#330099" color="#330099" />
    <circle cx="-50" cy="-87" r="5" fill="#330099" color="#330099" />
    <circle cx="-41" cy="-91" r="5" fill="#330099" color="#330099" />
    <circle cx="-31" cy="-95" r="5" fill="#FFFFFF" color="#FFFFFF" />
    <circle cx="-21" cy="-98" r="5" fill="#330099" color="#330099" />
    <circle cx="-10" cy="-99" r="5" fill="#330099" color="#330099" />
    <circle cx="-0" cy="-100" r="5" fill="#00CC66" color="#00CC66" />
    <circle cx="10" cy="-99" r="5" fill="#00CC66" color="#00CC66" />
    <circle cx="21" cy="-98" r="5" fill="#00CC66" color="#00CC66" />
    <circle cx="31" cy="-95" r="5" fill="#00CC66" color="#00CC66" />
    <circle cx="41" cy="-91" r="5" fill="#00CC66" color="#00CC66" />
    <circle cx="50" cy="-87" r="5" fill="#00CC66" color="#00CC66" />
    <circle cx="59" cy="-81" r="5" fill="#00CC66" color="#00CC66" />
    <circle cx="67" cy="-74" r="5" fill="#00CC66" color="#00CC66" />
    <circle cx="74" cy="-67" r="5" fill="#00CC66" color="#00CC66" />
    <circle cx="81" cy="-59" r="5" fill="#00CC66" color="#00CC66" />
    <circle cx="87" cy="-50" r="5" fill="#00CC66" color="#00CC66" />
    <circle cx="91" cy="-41" r="5" fill="#00CC66" color="#00CC66" />
    <circle cx="95" cy="-31" r="5" fill="#00CC66" color="#00CC66" />
    <circle cx="98" cy="-21" r="5" fill="#00CC66" color="#00CC66" />
    <circle cx="99" cy="-10" r="5" fill="#00CC66" color="#00CC66" />
    <!-- Circle 5 }}} -->
  </g>
</svg>
